<svg xmlns="http://www.w3.org/2000/svg" width="207.3" height="207.3" viewBox="0 0 207.3 207.3"><path fill="#fff" d="M0 149.9c.1 1.3.2 2.6.4 3.8a58.2 58.2 0 0 0 7 22.1 60 60 0 0 0 28 26 58 58 0 0 0 19.6 5.3l2.6.2H0z"/><path d="M0 149.9V57.4c0-.3.1-.5.1-.8a55.8 55.8 0 0 1 1.8-11.4A59.6 59.6 0 0 1 26 10.7 57.1 57.1 0 0 1 59.1.1c29.3-.1 58.6 0 87.8 0a59.8 59.8 0 0 1 15.7 2 58.7 58.7 0 0 1 25.5 14.2c12.4 11.7 19 26.2 19.1 43.2.2 28.8.1 57.7 0 86.5 0 2.1-.1 4.3-.2 6.4a56.2 56.2 0 0 1-4.1 17.1 60 60 0 0 1-26.7 30.2 58.3 58.3 0 0 1-22.5 7.2l-3.9.4H57.5l-2.6-.2a58 58 0 0 1-19.6-5.1 60 60 0 0 1-28-26 58.2 58.2 0 0 1-7-22.1c-.1-1.4-.2-2.7-.3-4zM103.6 16H61l-5.4.2a40.7 40.7 0 0 0-17.5 5.6c-14.5 8.8-22 21.7-22.1 38.7-.2 28.8 0 57.6 0 86.4a45.9 45.9 0 0 0 1 9.8 43.9 43.9 0 0 0 42.7 34.7c29 .1 58 0 87.1 0a50 50 0 0 0 7.8-.6 42.1 42.1 0 0 0 21.7-10.3 43.3 43.3 0 0 0 15.1-33.6q.1-43.2 0-86.3a47.2 47.2 0 0 0-.3-5.4 42.7 42.7 0 0 0-9.7-23c-8.8-10.5-20.1-16-33.7-16.1s-29.4-.1-44.1-.1z"/><path d="M47.8 103.6a55.8 55.8 0 1 1 55.6 55.8 55.9 55.9 0 0 1-55.6-55.8zm15.9.1a39.9 39.9 0 1 0 39.9-39.9 39.8 39.8 0 0 0-39.8 39.9zm111.7-59.8a12 12 0 1 1-11.9-12 12 12 0 0 1 11.9 12z"/></svg>